<svg width="100" height="33" viewBox="0 0 100 33" fill="none" xmlns="http://www.w3.org/2000/svg">
<path d="M77.6092 27.887H79.8069V13.1629H77.6092V27.887ZM97.4041 18.4672L94.8848 24.8506H94.8095L92.1948 18.4672H89.8275L93.7495 27.3888L91.5129 32.352H93.8048L99.848 18.4672H97.4041ZM84.9397 26.2147C84.2212 26.2147 83.2166 25.8544 83.2166 24.9643C83.2166 23.8278 84.4674 23.3922 85.5462 23.3922C86.512 23.3922 86.9678 23.6002 87.5544 23.8845C87.3836 25.2486 86.2093 26.2147 84.9397 26.2147V26.2147ZM85.2059 18.1451C83.6147 18.1451 81.967 18.8462 81.285 20.3994L83.2354 21.2138C83.6524 20.3994 84.4285 20.1344 85.2436 20.1344C86.3801 20.1344 87.5355 20.8158 87.5544 22.0285V22.1799C87.1563 21.9526 86.3035 21.6117 85.2624 21.6117C83.1589 21.6117 81.0189 22.7669 81.0189 24.9265C81.0189 26.8965 82.7431 28.1658 84.6747 28.1658C86.1516 28.1658 86.9678 27.5029 87.4778 26.7259H87.5544V27.8631H89.6767V22.2176C89.6767 19.6035 87.7239 18.1451 85.2059 18.1451V18.1451ZM71.6237 20.2595H68.4979V15.2126H71.6237C73.2667 15.2126 74.1995 16.5726 74.1995 17.736C74.1995 18.877 73.2667 20.2595 71.6237 20.2595V20.2595ZM71.5672 13.1629H66.3011V27.887H68.4979V22.3087H71.5672C74.0028 22.3087 76.3973 20.5457 76.3973 17.736C76.3973 14.9269 74.0028 13.1629 71.5672 13.1629ZM42.8513 26.2174C41.333 26.2174 40.0623 24.9458 40.0623 23.2008C40.0623 21.4355 41.333 20.1459 42.8513 20.1459C44.3503 20.1459 45.5266 21.4355 45.5266 23.2008C45.5266 24.9458 44.3503 26.2174 42.8513 26.2174V26.2174ZM45.3748 19.2916H45.2989C44.8057 18.7036 43.8566 18.1723 42.6618 18.1723C40.1567 18.1723 37.861 20.3736 37.861 23.2008C37.861 26.0086 40.1567 28.1907 42.6618 28.1907C43.8566 28.1907 44.8057 27.6593 45.2989 27.0525H45.3748V27.7729C45.3748 29.6901 44.3503 30.7142 42.6995 30.7142C41.3528 30.7142 40.5179 29.7466 40.176 28.9309L38.2599 29.7278C38.8097 31.0555 40.2703 32.6879 42.6995 32.6879C45.2805 32.6879 47.4626 31.1696 47.4626 27.4693V18.4759H45.3748V19.2916ZM48.9808 27.887H51.1809V13.1629H48.9808V27.887ZM54.4258 23.0297C54.3692 21.0941 55.9256 20.1077 57.0445 20.1077C57.9177 20.1077 58.657 20.5443 58.9046 21.1701L54.4258 23.0297ZM61.2565 21.3596C60.8392 20.2407 59.568 18.1723 56.9685 18.1723C54.3875 18.1723 52.2436 20.2025 52.2436 23.1815C52.2436 25.9898 54.3692 28.1907 57.2147 28.1907C59.5104 28.1907 60.8392 26.787 61.3898 25.9708L59.682 24.8321C59.1125 25.6672 58.335 26.2174 57.2147 26.2174C56.0958 26.2174 55.2985 25.705 54.7869 24.6993L61.4841 21.9291L61.2565 21.3596ZM7.89394 19.7093V21.8343H12.979C12.8272 23.0297 12.4287 23.9024 11.8215 24.5096C11.0812 25.2494 9.92372 26.0656 7.89394 26.0656C4.76305 26.0656 2.31551 23.5421 2.31551 20.4113C2.31551 17.2806 4.76305 14.7567 7.89394 14.7567C9.58275 14.7567 10.8158 15.421 11.7267 16.2749L13.2261 14.7755C11.9544 13.5614 10.266 12.6316 7.89394 12.6316C3.60506 12.6316 0 16.123 0 20.4113C0 24.6993 3.60506 28.1907 7.89394 28.1907C10.2085 28.1907 11.9544 27.4316 13.3204 26.0086C14.7246 24.6045 15.1612 22.6312 15.1612 21.0371C15.1612 20.5443 15.1229 20.0889 15.0471 19.7093H7.89394ZM20.9424 26.2174C19.4241 26.2174 18.1148 24.9651 18.1148 23.1815C18.1148 21.3789 19.4241 20.1459 20.9424 20.1459C22.4601 20.1459 23.7694 21.3789 23.7694 23.1815C23.7694 24.9651 22.4601 26.2174 20.9424 26.2174V26.2174ZM20.9424 18.1723C18.1713 18.1723 15.9138 20.2784 15.9138 23.1815C15.9138 26.0656 18.1713 28.1907 20.9424 28.1907C23.7124 28.1907 25.9705 26.0656 25.9705 23.1815C25.9705 20.2784 23.7124 18.1723 20.9424 18.1723ZM31.9108 26.2174C30.3936 26.2174 29.0838 24.9651 29.0838 23.1815C29.0838 21.3789 30.3936 20.1459 31.9108 20.1459C33.4291 20.1459 34.738 21.3789 34.738 23.1815C34.738 24.9651 33.4291 26.2174 31.9108 26.2174ZM31.9108 18.1723C29.1408 18.1723 26.8833 20.2784 26.8833 23.1815C26.8833 26.0656 29.1408 28.1907 31.9108 28.1907C34.6819 28.1907 36.9395 26.0656 36.9395 23.1815C36.9395 20.2784 34.6819 18.1723 31.9108 18.1723Z" fill="white"/>
<path d="M4.0481 8.14085C2.99217 8.14085 2.08391 7.76931 1.35163 7.03715C0.618983 6.3045 0.247925 5.38714 0.247925 4.32044C0.247925 3.25374 0.619167 2.33801 1.35163 1.60373C2.08392 0.871442 2.99218 0.500021 4.0481 0.500021C4.58605 0.500021 5.08813 0.592937 5.56794 0.786414C6.04792 0.979914 6.44062 1.24853 6.74986 1.60005L6.82278 1.68309L5.99902 2.50661L5.91667 2.4054C5.71162 2.15342 5.45078 1.95766 5.12029 1.81536C4.791 1.67342 4.43032 1.60787 4.0481 1.60787C3.30436 1.60787 2.68726 1.86044 2.17194 2.37388C2.17182 2.374 2.17158 2.37399 2.17146 2.37412C1.66785 2.89793 1.41465 3.53567 1.41465 4.32044C1.41465 5.10582 1.66816 5.7437 2.17238 6.26769C2.6877 6.78091 3.30476 7.03485 4.04809 7.03485C4.72891 7.03485 5.292 6.8448 5.7347 6.46851H5.73494C6.14706 6.11832 6.39439 5.64508 6.48186 5.04183H3.93032V3.95607H7.58465L7.60029 4.05544C7.63023 4.24631 7.65136 4.43055 7.65136 4.60753C7.65136 5.62062 7.34249 6.4476 6.73651 7.05602C6.05245 7.78118 5.15282 8.14086 4.04809 8.14086L4.0481 8.14085ZM35.7795 8.14085C34.722 8.14085 33.8244 7.76913 33.1015 7.03715C33.1014 7.03707 33.1014 7.03703 33.1012 7.03691C33.1012 7.03684 33.1011 7.03679 33.101 7.03668C32.3772 6.31258 32.018 5.39502 32.018 4.32043C32.018 3.24584 32.3772 2.32827 33.101 1.60418C33.1011 1.6041 33.1011 1.60406 33.1012 1.60394L33.1015 1.60371C33.8244 0.871599 34.722 0.5 35.7795 0.5C36.835 0.5 37.733 0.871692 38.4558 1.61475C39.1799 2.33873 39.5392 3.25455 39.5392 4.32042C39.5392 5.39501 39.1801 6.31257 38.4562 7.03667L38.456 7.0369C37.7327 7.76941 36.8264 8.14084 35.7795 8.14084L35.7795 8.14085ZM8.6971 7.98259V0.658285H8.81488H13.0714V1.76613H9.84359V3.77756H12.7549V4.86332H9.84359V6.87658H13.0714V7.98259H8.6971ZM15.7486 7.98259V1.76613H13.7684V0.658285H18.8752V1.76613H18.7574H16.8951V7.98259H15.7486ZM22.139 7.98259V0.658285H23.2854V0.776062V7.98259H22.139ZM26.1715 7.98259V1.76613H24.1913V0.658285H29.2981V1.76613H29.1803H27.318V7.98259H26.1715ZM40.5569 7.98259V0.658285H41.8497L45.1399 5.92562L45.1116 4.92566V0.658285H46.2581V7.98259H45.1236L41.6751 2.44911L41.7034 3.44838V3.44999V7.98259H40.5569ZM35.7795 7.03485C36.5233 7.03485 37.1304 6.78118 37.6253 6.2686L37.6261 6.26766L37.6268 6.26695C38.1287 5.76486 38.3744 5.11849 38.3744 4.3204C38.3744 3.52425 38.1286 2.87571 37.6268 2.37385L37.6261 2.37314L37.6253 2.37243C37.1305 1.85995 36.5235 1.6078 35.7795 1.6078C35.0344 1.6078 34.4274 1.85951 33.9232 2.37197L33.9227 2.37244C33.43 2.88649 33.1847 3.52447 33.1847 4.32038C33.1847 5.11822 33.4299 5.75417 33.9227 6.26831L33.9232 6.26878C34.4275 6.78134 35.0346 7.0348 35.7795 7.0348V7.03485Z" fill="white"/>
</svg>
