<svg width="89" height="31" viewBox="0 0 89 31" fill="none" xmlns="http://www.w3.org/2000/svg">
<path d="M55.4409 13.1838V15.8821H53.7496V17.6516H55.4409V23.664C55.4409 25.717 56.3696 26.5382 58.7061 26.5382C59.1167 26.5382 59.5078 26.4893 59.8499 26.4306V24.6807C59.5567 24.71 59.3709 24.7296 59.0483 24.7296C58.0022 24.7296 57.5427 24.2408 57.5427 23.1263V17.6516H59.8499V15.8821H57.5427V13.1838H55.4409Z" fill="white"/>
<path d="M65.8021 26.6848C68.911 26.6848 70.8173 24.6025 70.8173 21.1515C70.8173 17.72 68.9012 15.6279 65.8021 15.6279C62.6933 15.6279 60.7771 17.72 60.7771 21.1515C60.7771 24.6025 62.6835 26.6848 65.8021 26.6848ZM65.8021 24.8176C63.974 24.8176 62.9474 23.4782 62.9474 21.1515C62.9474 18.8443 63.974 17.4952 65.8021 17.4952C67.6205 17.4952 68.6568 18.8443 68.6568 21.1515C68.6568 23.4684 67.6205 24.8176 65.8021 24.8176Z" fill="white"/>
<path d="M72.4484 26.4795H74.5503V20.1934C74.5503 18.6976 75.6746 17.6907 77.2681 17.6907C77.6396 17.6907 78.2653 17.7591 78.4412 17.8178V15.7452C78.2164 15.6866 77.8155 15.6572 77.5027 15.6572C76.1145 15.6572 74.9316 16.4198 74.6285 17.4658H74.4721V15.8332H72.4484V26.4795Z" fill="white"/>
<path d="M83.6602 17.417C85.2146 17.417 86.2313 18.5021 86.2802 20.1739H80.9033C81.0206 18.5119 82.1058 17.417 83.6602 17.417ZM86.2704 23.6053C85.8794 24.4363 85.0093 24.8958 83.7384 24.8958C82.0569 24.8958 80.9717 23.7129 80.9033 21.8456V21.7283H88.4212V20.9951C88.4212 17.6516 86.6322 15.6279 83.67 15.6279C80.6687 15.6279 78.7623 17.7884 78.7623 21.1906C78.7623 24.5927 80.6295 26.6848 83.6797 26.6848C86.114 26.6848 87.8151 25.5117 88.2941 23.6053H86.2704Z" fill="white"/>
<path d="M41.657 22.548C41.8191 25.1623 43.9976 26.8342 47.2401 26.8342C50.7055 26.8342 52.874 25.0812 52.874 22.2846C52.874 20.0857 51.6378 18.8698 48.6385 18.1706L47.0273 17.7755C45.1224 17.3296 44.3523 16.7318 44.3523 15.6881C44.3523 14.3708 45.548 13.5096 47.3415 13.5096C49.0438 13.5096 50.2192 14.3506 50.432 15.6982H52.6409C52.5092 13.236 50.3408 11.5033 47.3719 11.5033C44.18 11.5033 42.0521 13.236 42.0521 15.8401C42.0521 17.9883 43.2579 19.265 45.9026 19.8831L47.7873 20.3391C49.7227 20.795 50.5738 21.4638 50.5738 22.5784C50.5738 23.8754 49.2363 24.8178 47.4124 24.8178C45.4568 24.8178 44.099 23.9362 43.9064 22.548H41.657Z" fill="white"/>
<path d="M19.8835 15.6572C18.4366 15.6572 17.1853 16.3807 16.54 17.5929H16.3836V15.8332H14.3599V30.0185H16.4618V24.8665H16.628C17.1853 25.9907 18.3877 26.6555 19.9031 26.6555C22.5915 26.6555 24.3024 24.5341 24.3024 21.1515C24.3024 17.7689 22.5915 15.6572 19.8835 15.6572ZM19.2872 24.7687C17.5274 24.7687 16.4227 23.3805 16.4227 21.1613C16.4227 18.9323 17.5274 17.544 19.2969 17.544C21.0762 17.544 22.1418 18.9029 22.1418 21.1515C22.1418 23.4098 21.0762 24.7687 19.2872 24.7687Z" fill="white"/>
<path d="M31.6572 15.6572C30.2103 15.6572 28.959 16.3807 28.3138 17.5929H28.1573V15.8332H26.1336V30.0185H28.2355V24.8665H28.4017C28.959 25.9907 30.1615 26.6555 31.6768 26.6555C34.3652 26.6555 36.0761 24.5341 36.0761 21.1515C36.0761 17.7689 34.3652 15.6572 31.6572 15.6572ZM31.0609 24.7687C29.3012 24.7687 28.1964 23.3805 28.1964 21.1613C28.1964 18.9323 29.3012 17.544 31.0707 17.544C32.8499 17.544 33.9155 18.9029 33.9155 21.1515C33.9155 23.4098 32.8499 24.7687 31.0609 24.7687Z" fill="white"/>
<path d="M10.5888 26.4795H13.0004L7.72119 11.8579H5.27918L0 26.4795H2.33054L3.6782 22.5987H9.25124L10.5888 26.4795ZM6.38366 14.5127H6.55592L8.67367 20.6937H4.25577L6.38366 14.5127Z" fill="white"/>
<path d="M1.41162 0.347057V7.40062H3.95833C6.06023 7.40062 7.27737 6.10527 7.27737 3.85184C7.27737 1.63263 6.05045 0.347057 3.95833 0.347057H1.41162ZM2.50656 1.34423H3.83613C5.29768 1.34423 6.16288 2.27298 6.16288 3.8665C6.16288 5.48447 5.31234 6.40344 3.83613 6.40344H2.50656V1.34423Z" fill="white"/>
<path d="M11.0051 7.50327C12.5595 7.50327 13.5127 6.4621 13.5127 4.73659C13.5127 3.02086 12.5546 1.9748 11.0051 1.9748C9.45063 1.9748 8.49256 3.02086 8.49256 4.73659C8.49256 6.4621 9.44574 7.50327 11.0051 7.50327ZM11.0051 6.56964C10.091 6.56964 9.57772 5.89996 9.57772 4.73659C9.57772 3.58299 10.091 2.90843 11.0051 2.90843C11.9142 2.90843 12.4324 3.58299 12.4324 4.73659C12.4324 5.89508 11.9142 6.56964 11.0051 6.56964Z" fill="white"/>
<path d="M21.6299 2.07745H20.5789L19.6306 6.13948H19.5475L18.4526 2.07745H17.4456L16.3507 6.13948H16.2725L15.3193 2.07745H14.2537L15.7201 7.40062H16.8004L17.8953 3.48034H17.9784L19.0783 7.40062H20.1683L21.6299 2.07745Z" fill="white"/>
<path d="M22.8402 7.40062H23.8911V4.28688C23.8911 3.4559 24.3848 2.93776 25.162 2.93776C25.9392 2.93776 26.3107 3.36303 26.3107 4.21845V7.40062H27.3617V3.95449C27.3617 2.68847 26.7067 1.9748 25.5189 1.9748C24.7172 1.9748 24.1893 2.33163 23.9302 2.9231H23.852V2.07745H22.8402V7.40062Z" fill="white"/>
<path d="M29.0168 7.40062H30.0677V0H29.0168V7.40062Z" fill="white"/>
<path d="M34.0203 7.50327C35.5747 7.50327 36.5279 6.4621 36.5279 4.73659C36.5279 3.02086 35.5698 1.9748 34.0203 1.9748C32.4659 1.9748 31.5078 3.02086 31.5078 4.73659C31.5078 6.4621 32.461 7.50327 34.0203 7.50327ZM34.0203 6.56964C33.1062 6.56964 32.593 5.89996 32.593 4.73659C32.593 3.58299 33.1062 2.90843 34.0203 2.90843C34.9295 2.90843 35.4476 3.58299 35.4476 4.73659C35.4476 5.89508 34.9295 6.56964 34.0203 6.56964Z" fill="white"/>
<path d="M39.6592 6.60385C39.0873 6.60385 38.6718 6.32523 38.6718 5.84619C38.6718 5.37693 39.0042 5.12764 39.7374 5.07876L41.0377 4.99566V5.44048C41.0377 6.10038 40.4511 6.60385 39.6592 6.60385ZM39.3904 7.4886C40.0894 7.4886 40.6711 7.18554 40.9888 6.65273H41.0719V7.40062H42.0837V3.76385C42.0837 2.63959 41.331 1.9748 39.9965 1.9748C38.7891 1.9748 37.9288 2.56138 37.8213 3.47546H38.838C38.9553 3.09907 39.361 2.88399 39.9476 2.88399C40.6662 2.88399 41.0377 3.20172 41.0377 3.76385V4.22334L39.5957 4.30644C38.3297 4.38465 37.616 4.937 37.616 5.89508C37.616 6.86781 38.3639 7.4886 39.3904 7.4886Z" fill="white"/>
<path d="M45.6501 7.4886C46.3833 7.4886 47.0041 7.14155 47.3218 6.55986H47.4049V7.40062H48.4119V0H47.3609V2.9231H47.2827C46.9943 2.33652 46.3784 1.98947 45.6501 1.98947C44.3059 1.98947 43.4407 3.05508 43.4407 4.73659C43.4407 6.42299 44.2961 7.4886 45.6501 7.4886ZM45.9483 2.93287C46.8281 2.93287 47.3805 3.63188 47.3805 4.74148C47.3805 5.85597 46.833 6.5452 45.9483 6.5452C45.0586 6.5452 44.5258 5.86575 44.5258 4.73659C44.5258 3.61721 45.0635 2.93287 45.9483 2.93287Z" fill="white"/>
<path d="M55.2269 7.50327C56.7813 7.50327 57.7345 6.4621 57.7345 4.73659C57.7345 3.02086 56.7765 1.9748 55.2269 1.9748C53.6725 1.9748 52.7144 3.02086 52.7144 4.73659C52.7144 6.4621 53.6676 7.50327 55.2269 7.50327ZM55.2269 6.56964C54.3128 6.56964 53.7996 5.89996 53.7996 4.73659C53.7996 3.58299 54.3128 2.90843 55.2269 2.90843C56.1361 2.90843 56.6542 3.58299 56.6542 4.73659C56.6542 5.89508 56.1361 6.56964 55.2269 6.56964Z" fill="white"/>
<path d="M59.1257 7.40062H60.1766V4.28688C60.1766 3.4559 60.6703 2.93776 61.4475 2.93776C62.2248 2.93776 62.5963 3.36303 62.5963 4.21845V7.40062H63.6472V3.95449C63.6472 2.68847 62.9922 1.9748 61.8044 1.9748C61.0027 1.9748 60.4748 2.33163 60.2157 2.9231H60.1375V2.07745H59.1257V7.40062Z" fill="white"/>
<path d="M68.4874 0.752771V2.10189H67.6418V2.98664H68.4874V5.99284C68.4874 7.01934 68.9518 7.42995 70.12 7.42995C70.3253 7.42995 70.5209 7.40551 70.692 7.37618V6.5012C70.5453 6.51587 70.4524 6.52564 70.2911 6.52564C69.7681 6.52564 69.5384 6.28124 69.5384 5.72399V2.98664H70.692V2.10189H69.5384V0.752771H68.4874Z" fill="white"/>
<path d="M72.1027 7.40062H73.1536V4.29177C73.1536 3.48523 73.6327 2.94265 74.493 2.94265C75.236 2.94265 75.6319 3.3728 75.6319 4.22334V7.40062H76.6828V3.96427C76.6828 2.69824 75.9838 1.97969 74.8498 1.97969C74.0481 1.97969 73.486 2.33652 73.2269 2.93287H73.1438V0H72.1027V7.40062Z" fill="white"/>
<path d="M80.4741 2.86933C81.2513 2.86933 81.7596 3.41191 81.7841 4.24778H79.0956C79.1543 3.4168 79.6969 2.86933 80.4741 2.86933ZM81.7792 5.96351C81.5837 6.379 81.1486 6.60874 80.5132 6.60874C79.6724 6.60874 79.1298 6.01728 79.0956 5.08365V5.02499H82.8546V4.65838C82.8546 2.98664 81.9601 1.9748 80.479 1.9748C78.9783 1.9748 78.0251 3.05508 78.0251 4.75614C78.0251 6.45721 78.9587 7.50327 80.4838 7.50327C81.701 7.50327 82.5515 6.91669 82.791 5.96351H81.7792Z" fill="white"/>
</svg>
