<svg width="25" height="24" viewBox="0 0 25 24" fill="none" xmlns="http://www.w3.org/2000/svg">
<path d="M12.5 21C13.6819 21 14.8522 20.7672 15.9442 20.3149C17.0361 19.8626 18.0282 19.1997 18.864 18.364C19.6997 17.5282 20.3626 16.5361 20.8149 15.4442C21.2672 14.3522 21.5 13.1819 21.5 12C21.5 10.8181 21.2672 9.64778 20.8149 8.55585C20.3626 7.46392 19.6997 6.47177 18.864 5.63604C18.0282 4.80031 17.0361 4.13738 15.9442 3.68508C14.8522 3.23279 13.6819 3 12.5 3C10.1131 3 7.82387 3.94821 6.13604 5.63604C4.44821 7.32387 3.5 9.61305 3.5 12C3.5 14.3869 4.44821 16.6761 6.13604 18.364C7.82387 20.0518 10.1131 21 12.5 21ZM23.5 12C23.5 18.075 18.575 23 12.5 23C6.425 23 1.5 18.075 1.5 12C1.5 5.925 6.425 1 12.5 1C18.575 1 23.5 5.925 23.5 12ZM10.025 9.526C9.36859 10.1824 8.99982 11.0727 8.99982 12.001C8.99982 12.9293 9.36859 13.8196 10.025 14.476C10.6814 15.1324 11.5717 15.5012 12.5 15.5012C13.4283 15.5012 14.3186 15.1324 14.975 14.476L15.682 13.768L17.096 15.183L16.389 15.89C15.6198 16.6592 14.6398 17.1831 13.5729 17.3953C12.506 17.6075 11.4001 17.4986 10.3951 17.0824C9.39012 16.6661 8.53112 15.9611 7.92676 15.0567C7.3224 14.1522 6.99983 13.0888 6.99983 12.001C6.99983 10.9132 7.3224 9.84981 7.92676 8.94534C8.53112 8.04086 9.39012 7.33591 10.3951 6.91964C11.4001 6.50336 12.506 6.39446 13.5729 6.6067C14.6398 6.81894 15.6198 7.34279 16.389 8.112L17.096 8.819L15.682 10.233L14.975 9.526C14.65 9.20096 14.2641 8.94312 13.8395 8.7672C13.4148 8.59129 12.9597 8.50075 12.5 8.50075C12.0403 8.50075 11.5852 8.59129 11.1605 8.7672C10.7359 8.94312 10.35 9.20096 10.025 9.526Z" fill="#98A2B3"/>
</svg>
