<svg width="40" height="40" viewBox="0 0 40 40" fill="none" xmlns="http://www.w3.org/2000/svg">
<path d="M28.3334 14.1666C29.7141 14.1666 30.8334 13.0473 30.8334 11.6666C30.8334 10.2859 29.7141 9.16663 28.3334 9.16663C26.9527 9.16663 25.8334 10.2859 25.8334 11.6666C25.8334 13.0473 26.9527 14.1666 28.3334 14.1666Z" fill="#98A2B3"/>
<path d="M26.6667 5C31.2667 5 35 8.73333 35 13.3333V26.6667C35 31.2667 31.2667 35 26.6667 35H13.3333C8.73333 35 5 31.2667 5 26.6667V13.3333C5 8.73333 8.73333 5 13.3333 5H20H26.6667Z" stroke="#98A2B3" stroke-width="3" stroke-linecap="round" stroke-linejoin="round"/>
<path d="M20 13.3334C23.6834 13.3334 26.6667 16.3167 26.6667 20C26.6667 23.6834 23.6834 26.6667 20 26.6667C16.3167 26.6667 13.3334 23.6834 13.3334 20C13.3334 16.3167 16.3167 13.3334 20 13.3334Z" stroke="#98A2B3" stroke-width="3" stroke-linecap="round" stroke-linejoin="round"/>
</svg>
