<svg width="24" height="24" viewBox="0 0 24 24" fill="none" xmlns="http://www.w3.org/2000/svg">
<g clip-path="url(#clip0_3696_3894)">
<path d="M11.91 21.61C11.23 21.61 10.55 21.38 9.99004 20.91L6.45004 17.96C4.89004 16.66 3.89004 14.83 3.63004 12.81L3.02004 7.91C2.86004 6.59 3.59004 5.3 4.81004 4.78L10.73 2.24C11.48 1.92 12.34 1.92 13.09 2.24L19.01 4.78C20.23 5.3 20.97 6.59 20.8 7.91L20.19 12.81C19.94 14.83 18.94 16.66 17.37 17.96L13.83 20.91C13.27 21.37 12.59 21.61 11.91 21.61ZM11.91 4C11.78 4 11.64 4.03 11.52 4.08L5.61004 6.61C5.20004 6.78 4.96004 7.21 5.01004 7.65L5.62004 12.55C5.81004 14.07 6.56004 15.44 7.73004 16.41L11.27 19.36C11.64 19.67 12.18 19.67 12.55 19.36L16.09 16.41C17.26 15.43 18.01 14.06 18.2 12.54L18.81 7.64C18.87 7.2 18.62 6.77 18.21 6.6L12.3 4.07C12.18 4.02 12.04 3.99 11.91 3.99V4Z" fill="#98A2B3"/>
<path d="M11.8301 15.63C11.4301 15.63 11.0501 15.47 10.7701 15.19L8.20009 12.62C7.81009 12.23 7.81009 11.6 8.20009 11.21C8.59009 10.82 9.22009 10.82 9.61009 11.21L11.7501 13.35L15.0701 8.36998C15.3801 7.90998 15.9901 7.77998 16.4601 8.08998C16.9201 8.39998 17.0401 9.01998 16.7401 9.47998L13.0801 14.97C12.8301 15.35 12.4301 15.59 11.9801 15.63C11.9301 15.63 11.8801 15.63 11.8301 15.63Z" fill="#98A2B3"/>
</g>
<defs>
<clipPath id="clip0_3696_3894">
<rect width="17.83" height="19.61" fill="white" transform="translate(3 2)"/>
</clipPath>
</defs>
</svg>
