<svg width="48" height="48" viewBox="0 0 48 48" fill="none" xmlns="http://www.w3.org/2000/svg">
<path d="M20.6145 14.4398C21.8986 11.2384 22.5407 9.63776 23.5839 9.41591C23.8582 9.35758 24.1417 9.35758 24.4159 9.41591C25.4591 9.63776 26.1012 11.2384 27.3853 14.4398C28.1156 16.2604 28.4807 17.1707 29.1639 17.7898C29.3556 17.9635 29.5636 18.1181 29.7851 18.2516C30.5748 18.7276 31.5606 18.8159 33.5321 18.9924C36.8697 19.2913 38.5384 19.4408 39.048 20.3923C39.1536 20.5893 39.2253 20.8027 39.2603 21.0235C39.4293 22.0895 38.2025 23.2056 35.7489 25.4379L35.0676 26.0578C33.9205 27.1014 33.3469 27.6232 33.0152 28.2744C32.8162 28.665 32.6827 29.0857 32.6202 29.5197C32.516 30.243 32.6839 31 33.0198 32.514L33.1399 33.0549C33.7423 35.77 34.0435 37.1275 33.6675 37.7948C33.3297 38.3942 32.7076 38.7779 32.0204 38.8107C31.2554 38.8472 30.1774 37.9688 28.0215 36.2121C26.6011 35.0546 25.8908 34.4759 25.1024 34.2498C24.3819 34.0432 23.6179 34.0432 22.8974 34.2498C22.109 34.4759 21.3988 35.0546 19.9783 36.2121C17.8224 37.9688 16.7444 38.8472 15.9794 38.8107C15.2922 38.7779 14.6701 38.3942 14.3323 37.7948C13.9564 37.1275 14.2576 35.77 14.8599 33.0549L14.98 32.514C15.3159 31 15.4838 30.243 15.3796 29.5197C15.3171 29.0857 15.1836 28.665 14.9846 28.2744C14.6529 27.6232 14.0794 27.1014 12.9323 26.0578L12.2509 25.4379C9.79734 23.2056 8.57055 22.0895 8.7395 21.0235C8.77449 20.8027 8.84625 20.5893 8.95179 20.3923C9.46139 19.4408 11.1301 19.2913 14.4677 18.9924C16.4392 18.8159 17.425 18.7276 18.2147 18.2516C18.4362 18.1181 18.6442 17.9635 18.8359 17.7898C19.5191 17.1707 19.8842 16.2604 20.6145 14.4398Z" fill="#D9D9D9" stroke="#D9D9D9" stroke-width="1.61147"/>
</svg>
