<svg width="100" height="101" viewBox="0 0 100 101" fill="none" xmlns="http://www.w3.org/2000/svg">
<circle cx="50" cy="50.5" r="15" fill="black"/>
<circle cx="50" cy="50.5" r="15" fill="black" fill-opacity="0.2"/>
<path d="M42 58.5L32 68.5" stroke="black" stroke-width="4" stroke-linejoin="round"/>
<path d="M42 58.5L32 68.5" stroke="black" stroke-opacity="0.2" stroke-width="4" stroke-linejoin="round"/>
<path d="M42 42.5L30 30.5" stroke="black" stroke-width="4" stroke-linejoin="round"/>
<path d="M42 42.5L30 30.5" stroke="black" stroke-opacity="0.2" stroke-width="4" stroke-linejoin="round"/>
<circle cx="72.5" cy="76.75" r="5.5" stroke="black" stroke-width="4"/>
<circle cx="72.5" cy="76.75" r="5.5" stroke="black" stroke-opacity="0.2" stroke-width="4"/>
<path d="M58 58.5L70 73.5" stroke="black" stroke-width="4" stroke-linejoin="round"/>
<path d="M58 58.5L70 73.5" stroke="black" stroke-opacity="0.2" stroke-width="4" stroke-linejoin="round"/>
<circle cx="76.25" cy="24.25" r="9.25" stroke="black" stroke-width="4"/>
<circle cx="76.25" cy="24.25" r="9.25" stroke="black" stroke-opacity="0.2" stroke-width="4"/>
<path d="M69 31.5L58 42.5" stroke="black" stroke-width="4" stroke-linejoin="round"/>
<path d="M69 31.5L58 42.5" stroke="black" stroke-opacity="0.2" stroke-width="4" stroke-linejoin="round"/>
<circle cx="25.625" cy="26.125" r="7.375" stroke="black" stroke-width="4"/>
<circle cx="25.625" cy="74.875" r="11.125" stroke="black" stroke-width="4"/>
<circle cx="25.625" cy="74.875" r="11.125" stroke="black" stroke-opacity="0.2" stroke-width="4"/>
</svg>
