<svg width="101" height="100" viewBox="0 0 101 100" fill="none" xmlns="http://www.w3.org/2000/svg">
<path fill-rule="evenodd" clip-rule="evenodd" d="M50.6666 73.3333C63.5532 73.3333 73.9999 62.8866 73.9999 50C73.9999 37.1133 63.5532 26.6667 50.6666 26.6667C37.7799 26.6667 27.3333 37.1133 27.3333 50C27.3333 62.8866 37.7799 73.3333 50.6666 73.3333ZM50.6666 60C56.1894 60 60.6666 55.5228 60.6666 50C60.6666 44.4771 56.1894 40 50.6666 40C45.1437 40 40.6666 44.4771 40.6666 50C40.6666 55.5228 45.1437 60 50.6666 60Z" fill="black"/>
<path fill-rule="evenodd" clip-rule="evenodd" d="M50.6666 73.3333C63.5532 73.3333 73.9999 62.8866 73.9999 50C73.9999 37.1133 63.5532 26.6667 50.6666 26.6667C37.7799 26.6667 27.3333 37.1133 27.3333 50C27.3333 62.8866 37.7799 73.3333 50.6666 73.3333ZM50.6666 60C56.1894 60 60.6666 55.5228 60.6666 50C60.6666 44.4771 56.1894 40 50.6666 40C45.1437 40 40.6666 44.4771 40.6666 50C40.6666 55.5228 45.1437 60 50.6666 60Z" fill="black" fill-opacity="0.2"/>
<path d="M50.6666 26.6667V20" stroke="black" stroke-width="6" stroke-linecap="round"/>
<path d="M50.6666 26.6667V20" stroke="black" stroke-opacity="0.2" stroke-width="6" stroke-linecap="round"/>
<path d="M74 50L80.6666 50" stroke="black" stroke-width="6" stroke-linecap="round"/>
<path d="M74 50L80.6666 50" stroke="black" stroke-opacity="0.2" stroke-width="6" stroke-linecap="round"/>
<path d="M50.6666 80L50.6666 73.3333" stroke="black" stroke-width="6" stroke-linecap="round"/>
<path d="M50.6666 80L50.6666 73.3333" stroke="black" stroke-opacity="0.2" stroke-width="6" stroke-linecap="round"/>
<path d="M20.6666 50H27.3333" stroke="black" stroke-width="6" stroke-linecap="round"/>
<path d="M20.6666 50H27.3333" stroke="black" stroke-opacity="0.2" stroke-width="6" stroke-linecap="round"/>
</svg>
