<svg width="100" height="101" viewBox="0 0 100 101" fill="none" xmlns="http://www.w3.org/2000/svg">
<path d="M44.2099 15.4C44.9694 14.6381 45.8717 14.0335 46.8653 13.621C47.8589 13.2086 48.9241 12.9962 49.9999 12.9962C51.0757 12.9962 52.1409 13.2086 53.1345 13.621C54.1281 14.0335 55.0304 14.6381 55.7899 15.4L59.5737 19.1913C61.1112 20.7288 63.1962 21.5913 65.3674 21.5913H70.7262C71.8013 21.5898 72.8662 21.8004 73.8598 22.2111C74.8534 22.6217 75.7563 23.2243 76.5167 23.9844C77.2771 24.7444 77.8801 25.647 78.2912 26.6404C78.7023 27.6339 78.9134 28.6987 78.9124 29.7738L78.9087 35.1325C78.9087 37.3075 79.7712 39.3888 81.3087 40.9263L85.0962 44.7138C85.8575 45.4732 86.4616 46.3753 86.8738 47.3686C87.2859 48.3618 87.4981 49.4266 87.4981 50.5019C87.4981 51.5773 87.2859 52.642 86.8738 53.6353C86.4616 54.6285 85.8575 55.5306 85.0962 56.29L81.3087 60.0738C79.7712 61.6113 78.9087 63.6963 78.9087 65.8675V71.2263C78.9101 72.3014 78.6995 73.3663 78.2889 74.3599C77.8782 75.3535 77.2756 76.2564 76.5156 77.0168C75.7555 77.7772 74.8529 78.3802 73.8595 78.7913C72.8661 79.2024 71.8013 79.4135 70.7262 79.4125L65.3674 79.4088C63.1924 79.4088 61.1112 80.2713 59.5737 81.8088L55.7861 85.5963C55.0268 86.3577 54.1246 86.9617 53.1314 87.3739C52.1382 87.7861 51.0734 87.9982 49.998 87.9982C48.9227 87.9982 47.8579 87.7861 46.8647 87.3739C45.8714 86.9617 44.9693 86.3577 44.2099 85.5963L40.4261 81.8088C39.6659 81.0471 38.7628 80.443 37.7686 80.0311C36.7743 79.6193 35.7086 79.4078 34.6324 79.4088H29.2736C28.1985 79.4103 27.1336 79.1997 26.14 78.789C25.1464 78.3784 24.2435 77.7758 23.4831 77.0157C22.7227 76.2557 22.1197 75.3531 21.7086 74.3596C21.2975 73.3662 21.0864 72.3014 21.0874 71.2263L21.0911 65.8675C21.0911 63.6925 20.2286 61.6113 18.6911 60.0738L14.9036 56.2863C14.1423 55.5269 13.5382 54.6247 13.126 53.6315C12.7139 52.6383 12.5017 51.5735 12.5017 50.4982C12.5017 49.4228 12.7139 48.358 13.126 47.3648C13.5382 46.3716 14.1423 45.4694 14.9036 44.71L18.6911 40.9263C20.2286 39.3888 21.0911 37.3038 21.0911 35.1325V29.7738C21.0897 28.699 21.3002 27.6344 21.7106 26.641C22.121 25.6476 22.7232 24.7449 23.4829 23.9846C24.2426 23.2242 25.1447 22.6211 26.1377 22.2098C27.1307 21.7985 28.1951 21.587 29.2699 21.5875L34.6286 21.5913C36.8036 21.5913 38.8849 20.7288 40.4224 19.1913L44.2099 15.4Z" stroke="black" stroke-width="6" stroke-linecap="round" stroke-linejoin="round"/>
<path d="M39.47 40.045C40.34 37.435 41.72 36.13 43.61 36.13C45.11 36.13 46.16 37.03 46.76 38.83C47.3 40.42 48.005 44.32 48.875 50.53C49.805 50.41 50.33 50.35 50.45 50.35C51.35 50.35 51.8 50.8 51.8 51.7C51.8 52.06 51.665 52.36 51.395 52.6C51.125 52.84 50.81 52.99 50.45 53.05L49.28 53.185C49.58 55.675 49.73 57.535 49.73 58.765C49.73 59.995 49.415 60.925 48.785 61.555C48.155 62.185 47.42 62.5 46.58 62.5C45.77 62.5 44.99 62.155 44.24 61.465C43.52 60.775 42.95 59.98 42.53 59.08C41.63 57.13 41.18 55.675 41.18 54.715C41.18 52.885 42.845 51.625 46.175 50.935C45.245 44.575 44.63 40.975 44.33 40.135C44.06 39.265 43.82 38.83 43.61 38.83C43.01 38.83 42.485 39.505 42.035 40.855C40.655 44.995 39.74 47.965 39.29 49.765C38.84 51.565 38.36 53.53 37.85 55.66C37.34 57.79 36.95 59.365 36.68 60.385C36.44 61.375 36.215 61.975 36.005 62.185C35.825 62.395 35.54 62.5 35.15 62.5C34.25 62.5 33.8 62.05 33.8 61.15L33.89 60.61C34.28 59.05 34.73 57.205 35.24 55.075C35.78 52.945 36.17 51.37 36.41 50.35C37.13 47.53 38.15 44.095 39.47 40.045ZM46.58 53.635C44.78 54.025 43.88 54.46 43.88 54.94C43.88 55.48 44.225 56.425 44.915 57.775C45.635 59.125 46.19 59.8 46.58 59.8C46.88 59.8 47.03 59.305 47.03 58.315C47.03 57.295 46.88 55.735 46.58 53.635ZM66.5361 54.535L67.1211 58.36C67.1211 59.26 66.6711 59.71 65.7711 59.71C65.1111 59.71 64.6611 59.26 64.4211 58.36C64.2111 57.67 64.0311 56.53 63.8811 54.94C62.2611 55.18 60.7911 55.3 59.4711 55.3C58.5711 55.3 58.1211 54.85 58.1211 53.95C58.1211 53.05 58.5711 52.6 59.4711 52.6C60.6411 52.6 62.0361 52.48 63.6561 52.24C63.5661 50.92 63.5211 49.39 63.5211 47.65C63.5211 46.75 63.9711 46.3 64.8711 46.3C65.7711 46.3 66.2211 46.75 66.2211 47.65C66.2211 49.21 66.2661 50.605 66.3561 51.835L69.3711 51.25C70.2711 51.25 70.7211 51.7 70.7211 52.6C70.7211 53.26 70.2711 53.71 69.3711 53.95C68.9811 54.07 68.0361 54.265 66.5361 54.535Z" fill="black"/>
<path d="M39.47 40.045C40.34 37.435 41.72 36.13 43.61 36.13C45.11 36.13 46.16 37.03 46.76 38.83C47.3 40.42 48.005 44.32 48.875 50.53C49.805 50.41 50.33 50.35 50.45 50.35C51.35 50.35 51.8 50.8 51.8 51.7C51.8 52.06 51.665 52.36 51.395 52.6C51.125 52.84 50.81 52.99 50.45 53.05L49.28 53.185C49.58 55.675 49.73 57.535 49.73 58.765C49.73 59.995 49.415 60.925 48.785 61.555C48.155 62.185 47.42 62.5 46.58 62.5C45.77 62.5 44.99 62.155 44.24 61.465C43.52 60.775 42.95 59.98 42.53 59.08C41.63 57.13 41.18 55.675 41.18 54.715C41.18 52.885 42.845 51.625 46.175 50.935C45.245 44.575 44.63 40.975 44.33 40.135C44.06 39.265 43.82 38.83 43.61 38.83C43.01 38.83 42.485 39.505 42.035 40.855C40.655 44.995 39.74 47.965 39.29 49.765C38.84 51.565 38.36 53.53 37.85 55.66C37.34 57.79 36.95 59.365 36.68 60.385C36.44 61.375 36.215 61.975 36.005 62.185C35.825 62.395 35.54 62.5 35.15 62.5C34.25 62.5 33.8 62.05 33.8 61.15L33.89 60.61C34.28 59.05 34.73 57.205 35.24 55.075C35.78 52.945 36.17 51.37 36.41 50.35C37.13 47.53 38.15 44.095 39.47 40.045ZM46.58 53.635C44.78 54.025 43.88 54.46 43.88 54.94C43.88 55.48 44.225 56.425 44.915 57.775C45.635 59.125 46.19 59.8 46.58 59.8C46.88 59.8 47.03 59.305 47.03 58.315C47.03 57.295 46.88 55.735 46.58 53.635ZM66.5361 54.535L67.1211 58.36C67.1211 59.26 66.6711 59.71 65.7711 59.71C65.1111 59.71 64.6611 59.26 64.4211 58.36C64.2111 57.67 64.0311 56.53 63.8811 54.94C62.2611 55.18 60.7911 55.3 59.4711 55.3C58.5711 55.3 58.1211 54.85 58.1211 53.95C58.1211 53.05 58.5711 52.6 59.4711 52.6C60.6411 52.6 62.0361 52.48 63.6561 52.24C63.5661 50.92 63.5211 49.39 63.5211 47.65C63.5211 46.75 63.9711 46.3 64.8711 46.3C65.7711 46.3 66.2211 46.75 66.2211 47.65C66.2211 49.21 66.2661 50.605 66.3561 51.835L69.3711 51.25C70.2711 51.25 70.7211 51.7 70.7211 52.6C70.7211 53.26 70.2711 53.71 69.3711 53.95C68.9811 54.07 68.0361 54.265 66.5361 54.535Z" fill="black" fill-opacity="0.2"/>
</svg>
