<svg width="26" height="31" viewBox="0 0 26 31" fill="none" xmlns="http://www.w3.org/2000/svg">
<path d="M21.1821 16.4539C21.2119 14.138 22.4556 11.9467 24.4286 10.7337C23.1839 8.9561 21.0991 7.82903 18.9301 7.76117C16.6167 7.51834 14.3739 9.14549 13.195 9.14549C11.9933 9.14549 10.1782 7.78528 8.22371 7.82549C5.67605 7.9078 3.30099 9.35626 2.06151 11.5836C-0.602906 16.1966 1.3845 22.9762 3.93679 26.705C5.21375 28.5309 6.70615 30.5705 8.65893 30.4981C10.5698 30.4189 11.2835 29.2796 13.5902 29.2796C15.8754 29.2796 16.545 30.4981 18.5374 30.4521C20.5879 30.4189 21.8798 28.6181 23.1119 26.775C24.0294 25.4739 24.7354 24.036 25.2038 22.5145C22.7941 21.4953 21.1849 19.0703 21.1821 16.4539Z" fill="white"/>
<path d="M17.4187 5.30892C18.5367 3.96678 19.0876 2.24169 18.9542 0.5C17.2461 0.679401 15.6683 1.49575 14.5352 2.78639C13.4272 4.04742 12.8505 5.74215 12.9595 7.41728C14.6682 7.43487 16.348 6.64065 17.4187 5.30892Z" fill="white"/>
</svg>
