<svg width="100" height="101" viewBox="0 0 100 101" fill="none" xmlns="http://www.w3.org/2000/svg">
<path d="M63.125 51C63.125 59.3863 61.4211 66.8798 58.7597 72.2027C56.0384 77.6452 52.6491 80.25 49.5 80.25C46.3509 80.25 42.9616 77.6452 40.2403 72.2027C37.5789 66.8798 35.875 59.3863 35.875 51C35.875 42.6137 37.5789 35.1202 40.2403 29.7973C42.9616 24.3548 46.3509 21.75 49.5 21.75C52.6491 21.75 56.0384 24.3548 58.7597 29.7973C61.4211 35.1202 63.125 42.6137 63.125 51Z" stroke="black" stroke-width="4"/>
<path d="M63.125 51C63.125 59.3863 61.4211 66.8798 58.7597 72.2027C56.0384 77.6452 52.6491 80.25 49.5 80.25C46.3509 80.25 42.9616 77.6452 40.2403 72.2027C37.5789 66.8798 35.875 59.3863 35.875 51C35.875 42.6137 37.5789 35.1202 40.2403 29.7973C42.9616 24.3548 46.3509 21.75 49.5 21.75C52.6491 21.75 56.0384 24.3548 58.7597 29.7973C61.4211 35.1202 63.125 42.6137 63.125 51Z" stroke="black" stroke-opacity="0.2" stroke-width="4"/>
<path d="M49.5 64.625C41.1137 64.625 33.6202 62.9211 28.2973 60.2597C22.8548 57.5384 20.25 54.1491 20.25 51C20.25 47.8509 22.8548 44.4616 28.2973 41.7403C33.6202 39.0789 41.1137 37.375 49.5 37.375C57.8863 37.375 65.3798 39.0789 70.7027 41.7403C76.1452 44.4616 78.75 47.8509 78.75 51C78.75 54.1491 76.1452 57.5384 70.7027 60.2597C65.3798 62.9211 57.8863 64.625 49.5 64.625Z" stroke="black" stroke-width="4"/>
<path d="M49.5 64.625C41.1137 64.625 33.6202 62.9211 28.2973 60.2597C22.8548 57.5384 20.25 54.1491 20.25 51C20.25 47.8509 22.8548 44.4616 28.2973 41.7403C33.6202 39.0789 41.1137 37.375 49.5 37.375C57.8863 37.375 65.3798 39.0789 70.7027 41.7403C76.1452 44.4616 78.75 47.8509 78.75 51C78.75 54.1491 76.1452 57.5384 70.7027 60.2597C65.3798 62.9211 57.8863 64.625 49.5 64.625Z" stroke="black" stroke-opacity="0.2" stroke-width="4"/>
<path d="M40.5002 51.1924L46.1877 47.6873L49.6926 42L52.6877 47.6873L58.885 51.1924L52.6877 54.1873L49.6926 60.3848L46.1877 54.1873L40.5002 51.1924Z" fill="black"/>
<path d="M40.5002 51.1924L46.1877 47.6873L49.6926 42L52.6877 47.6873L58.885 51.1924L52.6877 54.1873L49.6926 60.3848L46.1877 54.1873L40.5002 51.1924Z" fill="black" fill-opacity="0.2"/>
</svg>
