<svg width="100" height="100" viewBox="0 0 100 100" fill="none" xmlns="http://www.w3.org/2000/svg">
<path d="M65.625 25H78.125V37.5M65.625 75H78.125V62.5M34.375 25H21.875V37.5M34.375 75H21.875V62.5" stroke="#33363F" stroke-width="4" stroke-linecap="round"/>
<path fill-rule="evenodd" clip-rule="evenodd" d="M71.7407 50C71.7407 49.5795 71.6241 49.3144 71.3908 48.7843C69.7747 45.1106 63.8658 34.375 50.0001 34.375C36.1343 34.375 30.2255 45.1106 28.6094 48.7843C28.3761 49.3144 28.2595 49.5795 28.2595 50C28.2595 50.4205 28.3761 50.6856 28.6094 51.2157C30.2255 54.8894 36.1343 65.625 50.0001 65.625C63.8658 65.625 69.7747 54.8894 71.3908 51.2157C71.6241 50.6856 71.7407 50.4205 71.7407 50ZM50.0001 59.375C55.1778 59.375 59.3751 55.1777 59.3751 50C59.3751 44.8223 55.1778 40.625 50.0001 40.625C44.8224 40.625 40.6251 44.8223 40.6251 50C40.6251 55.1777 44.8224 59.375 50.0001 59.375Z" fill="#33363F"/>
</svg>
