<svg width="100" height="100" viewBox="0 0 100 100" fill="none" xmlns="http://www.w3.org/2000/svg">
<path d="M75.6667 52.0833C75.6667 53.7401 77.0099 55.0833 78.6667 55.0833C80.3236 55.0833 81.6667 53.7401 81.6667 52.0833L75.6667 52.0833ZM75.6668 37.5L75.6667 52.0833L81.6667 52.0833L81.6668 37.5L75.6668 37.5Z" fill="black"/>
<path d="M75.6667 52.0833C75.6667 53.7401 77.0099 55.0833 78.6667 55.0833C80.3236 55.0833 81.6667 53.7401 81.6667 52.0833L75.6667 52.0833ZM75.6668 37.5L75.6667 52.0833L81.6667 52.0833L81.6668 37.5L75.6668 37.5Z" fill="black" fill-opacity="0.2"/>
<path fill-rule="evenodd" clip-rule="evenodd" d="M29.5286 48.0975C29.3623 48.0144 29.1667 48.1353 29.1667 48.3211V62.5C29.1667 62.5 29.1667 75 50.0001 75C70.8334 75 70.8334 62.5 70.8334 62.5V48.3211C70.8334 48.1353 70.6378 48.0144 70.4716 48.0975L50.4473 58.1097C50.1658 58.2504 49.8344 58.2504 49.5529 58.1097L29.5286 48.0975Z" fill="black"/>
<path fill-rule="evenodd" clip-rule="evenodd" d="M29.5286 48.0975C29.3623 48.0144 29.1667 48.1353 29.1667 48.3211V62.5C29.1667 62.5 29.1667 75 50.0001 75C70.8334 75 70.8334 62.5 70.8334 62.5V48.3211C70.8334 48.1353 70.6378 48.0144 70.4716 48.0975L50.4473 58.1097C50.1658 58.2504 49.8344 58.2504 49.5529 58.1097L29.5286 48.0975Z" fill="black" fill-opacity="0.2"/>
<path d="M17.5612 37.0528L49.7765 20.9451C49.9172 20.8748 50.0829 20.8748 50.2237 20.9451L82.439 37.0528C82.8075 37.2371 82.8075 37.763 82.439 37.9472L50.2237 54.0549C50.0829 54.1253 49.9172 54.1253 49.7765 54.0549L17.5612 37.9472C17.1927 37.763 17.1927 37.2371 17.5612 37.0528Z" fill="black"/>
<path d="M17.5612 37.0528L49.7765 20.9451C49.9172 20.8748 50.0829 20.8748 50.2237 20.9451L82.439 37.0528C82.8075 37.2371 82.8075 37.763 82.439 37.9472L50.2237 54.0549C50.0829 54.1253 49.9172 54.1253 49.7765 54.0549L17.5612 37.9472C17.1927 37.763 17.1927 37.2371 17.5612 37.0528Z" fill="black" fill-opacity="0.2"/>
</svg>
