<svg width="101" height="100" viewBox="0 0 101 100" fill="none" xmlns="http://www.w3.org/2000/svg">
<path fill-rule="evenodd" clip-rule="evenodd" d="M32.3333 22.677C32.3333 21.9696 31.6187 21.4858 30.9619 21.7486L17.2119 27.2486C16.8322 27.4004 16.5833 27.7681 16.5833 28.177V78.523C16.5833 79.2304 17.2978 79.7142 17.9546 79.4514L31.7046 73.9514C32.0843 73.7996 32.3333 73.4319 32.3333 73.023V22.677ZM38.3333 72.4692C38.3333 72.9281 38.6455 73.3281 39.0907 73.4394L61.0907 78.9394C61.7219 79.0972 62.3333 78.6198 62.3333 77.9692V27.5308C62.3333 27.0719 62.021 26.6719 61.5758 26.5606L39.5758 21.0606C38.9446 20.9028 38.3333 21.3802 38.3333 22.0308V72.4692ZM68.9619 26.0486C68.5822 26.2004 68.3333 26.5681 68.3333 26.977V77.323C68.3333 78.0304 69.0478 78.5142 69.7046 78.2514L83.4546 72.7514C83.8343 72.5996 84.0833 72.2319 84.0833 71.823V21.477C84.0833 20.7696 83.3687 20.2858 82.7119 20.5486L68.9619 26.0486Z" fill="black"/>
<path fill-rule="evenodd" clip-rule="evenodd" d="M32.3333 22.677C32.3333 21.9696 31.6187 21.4858 30.9619 21.7486L17.2119 27.2486C16.8322 27.4004 16.5833 27.7681 16.5833 28.177V78.523C16.5833 79.2304 17.2978 79.7142 17.9546 79.4514L31.7046 73.9514C32.0843 73.7996 32.3333 73.4319 32.3333 73.023V22.677ZM38.3333 72.4692C38.3333 72.9281 38.6455 73.3281 39.0907 73.4394L61.0907 78.9394C61.7219 79.0972 62.3333 78.6198 62.3333 77.9692V27.5308C62.3333 27.0719 62.021 26.6719 61.5758 26.5606L39.5758 21.0606C38.9446 20.9028 38.3333 21.3802 38.3333 22.0308V72.4692ZM68.9619 26.0486C68.5822 26.2004 68.3333 26.5681 68.3333 26.977V77.323C68.3333 78.0304 69.0478 78.5142 69.7046 78.2514L83.4546 72.7514C83.8343 72.5996 84.0833 72.2319 84.0833 71.823V21.477C84.0833 20.7696 83.3687 20.2858 82.7119 20.5486L68.9619 26.0486Z" fill="black" fill-opacity="0.2"/>
</svg>
