<svg width="27" height="31" viewBox="0 0 27 31" fill="none" xmlns="http://www.w3.org/2000/svg">
<path d="M12.5323 14.8272L0.114502 28.0073C0.114969 28.0101 0.115901 28.0123 0.116368 28.0151C0.49719 29.4462 1.80435 30.5 3.35575 30.5C3.97591 30.5 4.55817 30.3323 5.05749 30.038L5.09715 30.0148L19.075 21.949L12.5323 14.8272Z" fill="#EA4335"/>
<path d="M25.0954 12.583L25.0835 12.5749L19.0489 9.07655L12.2502 15.1263L19.0726 21.9478L25.0754 18.4842C26.1278 17.9161 26.8422 16.8066 26.8422 15.5272C26.8422 14.257 26.1374 13.153 25.0954 12.583Z" fill="#FBBC04"/>
<path d="M0.113885 2.99213C0.0392372 3.2674 0 3.55573 0 3.85513V27.1449C0 27.4437 0.0387704 27.733 0.114352 28.0073L12.9595 15.1644L0.113885 2.99213Z" fill="#4285F4"/>
<path d="M12.6236 15.4998L19.0511 9.07418L5.08907 0.979294C4.58158 0.675336 3.98929 0.499915 3.35548 0.499915C1.80408 0.499915 0.495175 1.5556 0.114236 2.9885C0.113769 2.9899 0.11377 2.99083 0.11377 2.99211L12.6236 15.4998Z" fill="#34A853"/>
</svg>
